<svg xmlns="http://www.w3.org/2000/svg" viewBox="0 0 255 255">
<defs>
<style>.cls-1{fill:#D8B269;}.cls-2{fill:none;}</style>
</defs>
<title>绩牛</title>
<g id="jiniu_1" data-name="jiniu 2">
<g id="jiniu_1-2" data-name="jiniu 1">
<path class="cls-1" d="M146.06,95.16a26.25,26.25,0,0,0-19.55-7.69H34.89c-15.14,0-15.14-38.6-15.14-38.6-47.68,67.36,10.6,71.9,10.6,71.9h96.4v0a11.38,11.38,0,0,1,8.78,3.29l14.16,14.16a11.44,11.44,0,0,1,0,16.19l-14.16,14.16a11.45,11.45,0,0,1-16.19,0l-14.16-14.16a11.44,11.44,0,0,1,0-16.19l10.74-10.74H76.45l-.21.21a26.34,26.34,0,0,0,0,37.24l32.58,32.58a26.33,26.33,0,0,0,37.24,0L178.64,165a26.33,26.33,0,0,0,0-37.24Z"/><path class="cls-1" d="M235.25,48.87s0,38.6-15.14,38.6H147.83a27,27,0,0,1,6.53,4.82l28.49,28.49h41.81S282.93,116.23,235.25,48.87Z"/>
<rect class="cls-2" width="255" height="255"/>
</g>
</g>
</svg>